<mxfile host="app.diagrams.net" agent="Mozilla/5.0 (Windows NT 10.0; Win64; x64) AppleWebKit/537.36 (KHTML, like Gecko) Chrome/139.0.0.0 Safari/537.36" version="28.0.3">
  <diagram name="Spring Cloud Architecture" id="0">
    <mxGraphModel dx="1042" dy="527" grid="1" gridSize="10" guides="1" tooltips="1" connect="1" arrows="1" fold="1" page="1" pageScale="1" pageWidth="1920" pageHeight="1080" math="0" shadow="0">
      <root>
        <mxCell id="0" />
        <mxCell id="1" parent="0" />
        <mxCell id="BJaNdTo8ySEAVpEVWD-Y-52" value="" style="rounded=1;whiteSpace=wrap;html=1;fillColor=none;dashed=1;align=left;" vertex="1" parent="1">
          <mxGeometry x="120" y="73" width="840" height="510" as="geometry" />
        </mxCell>
        <mxCell id="BJaNdTo8ySEAVpEVWD-Y-49" style="edgeStyle=orthogonalEdgeStyle;rounded=0;orthogonalLoop=1;jettySize=auto;html=1;exitX=1;exitY=0.5;exitDx=0;exitDy=0;entryX=0;entryY=0.5;entryDx=0;entryDy=0;" edge="1" parent="1" source="5" target="8">
          <mxGeometry relative="1" as="geometry" />
        </mxCell>
        <mxCell id="BJaNdTo8ySEAVpEVWD-Y-50" style="edgeStyle=orthogonalEdgeStyle;rounded=0;orthogonalLoop=1;jettySize=auto;html=1;exitX=1;exitY=0.5;exitDx=0;exitDy=0;entryX=0;entryY=0.5;entryDx=0;entryDy=0;" edge="1" parent="1" source="5" target="9">
          <mxGeometry relative="1" as="geometry" />
        </mxCell>
        <mxCell id="BJaNdTo8ySEAVpEVWD-Y-51" style="edgeStyle=orthogonalEdgeStyle;rounded=0;orthogonalLoop=1;jettySize=auto;html=1;exitX=1;exitY=0.5;exitDx=0;exitDy=0;entryX=0;entryY=0.5;entryDx=0;entryDy=0;" edge="1" parent="1" source="5" target="10">
          <mxGeometry relative="1" as="geometry" />
        </mxCell>
        <mxCell id="5" value="API Gateway" style="rounded=1;whiteSpace=wrap;html=1;fillColor=#dae8fc;strokeColor=#6c8ebf;strokeWidth=2;" parent="1" vertex="1">
          <mxGeometry x="230" y="210" width="90" height="160" as="geometry" />
        </mxCell>
        <mxCell id="BJaNdTo8ySEAVpEVWD-Y-60" style="edgeStyle=orthogonalEdgeStyle;rounded=0;orthogonalLoop=1;jettySize=auto;html=1;exitX=1;exitY=0.5;exitDx=0;exitDy=0;entryX=0;entryY=0.5;entryDx=0;entryDy=0;" edge="1" parent="1" source="8" target="BJaNdTo8ySEAVpEVWD-Y-53">
          <mxGeometry relative="1" as="geometry" />
        </mxCell>
        <mxCell id="8" value="Auth Service" style="rounded=1;whiteSpace=wrap;html=1;fillColor=#1f2937;fontColor=#e5e7eb;strokeColor=#10b981;strokeWidth=2;" parent="1" vertex="1">
          <mxGeometry x="460" y="160" width="150" height="60" as="geometry" />
        </mxCell>
        <mxCell id="BJaNdTo8ySEAVpEVWD-Y-57" style="edgeStyle=orthogonalEdgeStyle;rounded=0;orthogonalLoop=1;jettySize=auto;html=1;exitX=1;exitY=0.5;exitDx=0;exitDy=0;" edge="1" parent="1" source="9" target="BJaNdTo8ySEAVpEVWD-Y-53">
          <mxGeometry relative="1" as="geometry" />
        </mxCell>
        <mxCell id="9" value="Users Service" style="rounded=1;whiteSpace=wrap;html=1;fillColor=#1f2937;fontColor=#e5e7eb;strokeColor=#10b981;strokeWidth=2;" parent="1" vertex="1">
          <mxGeometry x="460" y="260" width="150" height="60" as="geometry" />
        </mxCell>
        <mxCell id="BJaNdTo8ySEAVpEVWD-Y-58" style="edgeStyle=orthogonalEdgeStyle;rounded=0;orthogonalLoop=1;jettySize=auto;html=1;exitX=1;exitY=0.5;exitDx=0;exitDy=0;entryX=0;entryY=0.5;entryDx=0;entryDy=0;" edge="1" parent="1" source="10" target="BJaNdTo8ySEAVpEVWD-Y-53">
          <mxGeometry relative="1" as="geometry" />
        </mxCell>
        <mxCell id="BJaNdTo8ySEAVpEVWD-Y-63" style="edgeStyle=orthogonalEdgeStyle;rounded=0;orthogonalLoop=1;jettySize=auto;html=1;exitX=0.5;exitY=1;exitDx=0;exitDy=0;entryX=0.5;entryY=0;entryDx=0;entryDy=0;" edge="1" parent="1" source="10" target="BJaNdTo8ySEAVpEVWD-Y-61">
          <mxGeometry relative="1" as="geometry" />
        </mxCell>
        <mxCell id="BJaNdTo8ySEAVpEVWD-Y-64" style="edgeStyle=orthogonalEdgeStyle;rounded=0;orthogonalLoop=1;jettySize=auto;html=1;exitX=0.5;exitY=1;exitDx=0;exitDy=0;entryX=0.5;entryY=0;entryDx=0;entryDy=0;" edge="1" parent="1" source="10" target="BJaNdTo8ySEAVpEVWD-Y-62">
          <mxGeometry relative="1" as="geometry" />
        </mxCell>
        <mxCell id="10" value="Events Service" style="rounded=1;whiteSpace=wrap;html=1;fillColor=#1f2937;fontColor=#e5e7eb;strokeColor=#10b981;strokeWidth=2;" parent="1" vertex="1">
          <mxGeometry x="460" y="360" width="150" height="60" as="geometry" />
        </mxCell>
        <mxCell id="BJaNdTo8ySEAVpEVWD-Y-41" style="edgeStyle=orthogonalEdgeStyle;rounded=0;orthogonalLoop=1;jettySize=auto;html=1;exitX=1;exitY=0.75;exitDx=0;exitDy=0;entryX=0;entryY=0.5;entryDx=0;entryDy=0;" edge="1" parent="1" source="BJaNdTo8ySEAVpEVWD-Y-31" target="5">
          <mxGeometry relative="1" as="geometry" />
        </mxCell>
        <mxCell id="BJaNdTo8ySEAVpEVWD-Y-31" value="" style="shape=actor;whiteSpace=wrap;html=1;" vertex="1" parent="1">
          <mxGeometry x="40" y="245" width="40" height="60" as="geometry" />
        </mxCell>
        <mxCell id="BJaNdTo8ySEAVpEVWD-Y-56" value="" style="group;rounded=0;" vertex="1" connectable="0" parent="1">
          <mxGeometry x="730" y="190" width="190" height="200" as="geometry" />
        </mxCell>
        <mxCell id="BJaNdTo8ySEAVpEVWD-Y-53" value="" style="rounded=0;whiteSpace=wrap;html=1;fillColor=#f5f5f5;strokeColor=#666666;movable=1;resizable=1;rotatable=1;deletable=1;editable=1;locked=0;connectable=1;fontColor=#333333;" vertex="1" parent="BJaNdTo8ySEAVpEVWD-Y-56">
          <mxGeometry width="190" height="200" as="geometry" />
        </mxCell>
        <mxCell id="7" value="Config server" style="rounded=1;whiteSpace=wrap;html=1;fillColor=#d5e8d4;strokeColor=#82b366;strokeWidth=2;movable=1;resizable=1;rotatable=1;deletable=1;editable=1;locked=0;connectable=1;" parent="BJaNdTo8ySEAVpEVWD-Y-56" vertex="1">
          <mxGeometry x="10" y="30" width="170" height="60" as="geometry" />
        </mxCell>
        <mxCell id="11" value="Service Registry" style="rounded=1;whiteSpace=wrap;html=1;fillColor=#d5e8d4;strokeColor=#82b366;strokeWidth=2;movable=1;resizable=1;rotatable=1;deletable=1;editable=1;locked=0;connectable=1;" parent="BJaNdTo8ySEAVpEVWD-Y-56" vertex="1">
          <mxGeometry x="10" y="110" width="170" height="60" as="geometry" />
        </mxCell>
        <mxCell id="BJaNdTo8ySEAVpEVWD-Y-61" value="Databases" style="rounded=1;whiteSpace=wrap;html=1;fillColor=#e1d5e7;strokeColor=#9673a6;strokeWidth=2;" vertex="1" parent="1">
          <mxGeometry x="560" y="490" width="150" height="60" as="geometry" />
        </mxCell>
        <mxCell id="BJaNdTo8ySEAVpEVWD-Y-62" value="Metrics Store" style="rounded=1;whiteSpace=wrap;html=1;fillColor=#e1d5e7;strokeColor=#9673a6;strokeWidth=2;fillStyle=auto;" vertex="1" parent="1">
          <mxGeometry x="380" y="490" width="150" height="60" as="geometry" />
        </mxCell>
        <mxCell id="BJaNdTo8ySEAVpEVWD-Y-72" value="IRISINFINITY" style="text;strokeColor=none;align=center;fillColor=none;html=1;verticalAlign=middle;whiteSpace=wrap;rounded=0;fontStyle=1;fontSize=19;" vertex="1" parent="1">
          <mxGeometry x="475" y="80" width="130" height="30" as="geometry" />
        </mxCell>
      </root>
    </mxGraphModel>
  </diagram>
</mxfile>
